<svg xmlns="http://www.w3.org/2000/svg" xmlns:xlink="http://www.w3.org/1999/xlink" width="500" zoomAndPan="magnify" viewBox="0 0 375 374.999991" height="500" preserveAspectRatio="xMidYMid meet" version="1.0"><defs><g><g id="id1"/><g id="id2"/><g id="id3"/></g></defs><g fill="rgb(0%, 0%, 0%)" fill-opacity="1"><g transform="translate(0.0717886, 219.137949)"><g><path d="M 97.75 -162.921875 C 113.113281 -162.921875 126.921875 -160.59375 139.171875 -155.9375 C 151.429688 -151.28125 161.164062 -144.410156 168.375 -135.328125 C 175.59375 -126.253906 179.203125 -115.203125 179.203125 -102.171875 L 130.09375 -102.171875 C 130.09375 -108.835938 127.144531 -114.226562 121.25 -118.34375 C 115.351562 -122.457031 108.21875 -124.515625 99.84375 -124.515625 C 87.738281 -124.515625 78.582031 -121.296875 72.375 -114.859375 C 66.175781 -108.421875 63.078125 -99.304688 63.078125 -87.515625 L 63.078125 -72.609375 C 63.078125 -60.816406 66.175781 -51.703125 72.375 -45.265625 C 78.582031 -38.828125 87.738281 -35.609375 99.84375 -35.609375 C 108.21875 -35.609375 115.351562 -37.585938 121.25 -41.546875 C 127.144531 -45.503906 130.09375 -50.582031 130.09375 -56.78125 L 93.796875 -56.78125 L 93.796875 -89.375 L 179.203125 -89.375 L 179.203125 0 L 152.671875 0 L 147.546875 -15.828125 C 132.960938 -3.410156 113.878906 2.796875 90.296875 2.796875 C 63.765625 2.796875 43.828125 -4.144531 30.484375 -18.03125 C 17.140625 -31.914062 10.46875 -52.59375 10.46875 -80.0625 C 10.46875 -107.21875 18.03125 -127.816406 33.15625 -141.859375 C 48.289062 -155.898438 69.820312 -162.921875 97.75 -162.921875 Z M 97.75 -162.921875 "/></g></g></g><g fill="rgb(0%, 0%, 0%)" fill-opacity="1"><g transform="translate(193.931118, 219.137949)"><g><path d="M 169.203125 -111.015625 C 169.203125 -101.242188 166.5625 -92.398438 161.28125 -84.484375 C 156.007812 -76.566406 148.332031 -70.75 138.25 -67.03125 L 173.859375 0 L 116.140625 0 L 87.734375 -58.421875 L 68.65625 -58.421875 L 68.65625 0 L 17.21875 0 L 17.21875 -160.125 L 115.203125 -160.125 C 126.679688 -160.125 136.492188 -157.910156 144.640625 -153.484375 C 152.785156 -149.066406 158.914062 -143.09375 163.03125 -135.5625 C 167.144531 -128.039062 169.203125 -119.859375 169.203125 -111.015625 Z M 116.828125 -108.921875 C 116.828125 -113.109375 115.429688 -116.597656 112.640625 -119.390625 C 109.847656 -122.179688 106.4375 -123.578125 102.40625 -123.578125 L 68.65625 -123.578125 L 68.65625 -94.03125 L 102.40625 -94.03125 C 106.4375 -94.03125 109.847656 -95.460938 112.640625 -98.328125 C 115.429688 -101.203125 116.828125 -104.734375 116.828125 -108.921875 Z M 116.828125 -108.921875 "/></g></g></g><g fill="rgb(0%, 0%, 0%)" fill-opacity="1"><g transform="translate(86.020261, 336.726218)"><g><path d="M 58.109375 0 L 49.03125 0 L 49.03125 -5.65625 C 46.4375 -3.332031 43.59375 -1.554688 40.5 -0.328125 C 37.40625 0.898438 34.238281 1.515625 31 1.515625 C 26.125 1.515625 21.753906 0.726562 17.890625 -0.84375 C 14.035156 -2.425781 10.78125 -4.632812 8.125 -7.46875 C 5.46875 -10.300781 3.425781 -13.691406 2 -17.640625 C 0.582031 -21.585938 -0.125 -25.90625 -0.125 -30.59375 C -0.125 -35.25 0.582031 -39.5625 2 -43.53125 C 3.425781 -47.5 5.46875 -50.894531 8.125 -53.71875 C 10.78125 -56.550781 14.035156 -58.769531 17.890625 -60.375 C 21.753906 -61.976562 26.125 -62.78125 31 -62.78125 C 34.238281 -62.78125 37.40625 -62.195312 40.5 -61.03125 C 43.59375 -59.863281 46.4375 -58.117188 49.03125 -55.796875 L 49.03125 -78.171875 L 36.78125 -78.171875 L 36.78125 -85.875 L 58.109375 -85.875 Z M 49.03125 -47.046875 C 46.4375 -49.898438 43.613281 -51.960938 40.5625 -53.234375 C 37.519531 -54.503906 34.285156 -55.140625 30.859375 -55.140625 C 27.265625 -55.140625 24.09375 -54.503906 21.34375 -53.234375 C 18.601562 -51.960938 16.3125 -50.226562 14.46875 -48.03125 C 12.632812 -45.84375 11.242188 -43.265625 10.296875 -40.296875 C 9.359375 -37.335938 8.890625 -34.101562 8.890625 -30.59375 C 8.890625 -27.082031 9.359375 -23.847656 10.296875 -20.890625 C 11.242188 -17.929688 12.632812 -15.351562 14.46875 -13.15625 C 16.3125 -10.96875 18.601562 -9.234375 21.34375 -7.953125 C 24.09375 -6.679688 27.265625 -6.046875 30.859375 -6.046875 C 37.796875 -6.046875 43.851562 -8.789062 49.03125 -14.28125 Z M 49.03125 -47.046875 "/></g></g></g><g fill="rgb(0%, 0%, 0%)" fill-opacity="1"><g transform="translate(159.582203, 336.726218)"><g><path d="M 9.015625 -27.5 C 9.671875 -21.007812 12.035156 -15.832031 16.109375 -11.96875 C 20.191406 -8.113281 25.503906 -6.1875 32.046875 -6.1875 C 36.648438 -6.1875 40.75 -7.128906 44.34375 -9.015625 C 47.945312 -10.898438 50.648438 -13.25 52.453125 -16.0625 L 58.765625 -11.71875 C 55.691406 -7.414062 52.023438 -4.132812 47.765625 -1.875 C 43.515625 0.382812 38.273438 1.515625 32.046875 1.515625 C 27.304688 1.515625 22.960938 0.726562 19.015625 -0.84375 C 15.066406 -2.425781 11.65625 -4.632812 8.78125 -7.46875 C 5.90625 -10.300781 3.675781 -13.664062 2.09375 -17.5625 C 0.519531 -21.46875 -0.265625 -25.8125 -0.265625 -30.59375 C -0.265625 -35.25 0.445312 -39.539062 1.875 -43.46875 C 3.300781 -47.394531 5.363281 -50.789062 8.0625 -53.65625 C 10.757812 -56.53125 14.035156 -58.769531 17.890625 -60.375 C 21.753906 -61.976562 26.078125 -62.78125 30.859375 -62.78125 C 36.078125 -62.78125 40.640625 -61.898438 44.546875 -60.140625 C 48.453125 -58.390625 51.707031 -55.96875 54.3125 -52.875 C 56.925781 -49.78125 58.859375 -46.082031 60.109375 -41.78125 C 61.359375 -37.488281 61.984375 -32.726562 61.984375 -27.5 Z M 52.453125 -35.203125 C 51.441406 -41.910156 49.003906 -46.910156 45.140625 -50.203125 C 41.273438 -53.492188 36.515625 -55.140625 30.859375 -55.140625 C 27.960938 -55.140625 25.285156 -54.664062 22.828125 -53.71875 C 20.378906 -52.78125 18.207031 -51.429688 16.3125 -49.671875 C 14.425781 -47.921875 12.847656 -45.804688 11.578125 -43.328125 C 10.304688 -40.847656 9.492188 -38.140625 9.140625 -35.203125 Z M 52.453125 -35.203125 "/></g></g></g><g fill="rgb(0%, 0%, 0%)" fill-opacity="1"><g transform="translate(233.144145, 336.726218)"><g><path d="M 63.375 -61.328125 L 36.78125 0 L 24.671875 0 L -2.046875 -61.328125 L 8.75 -61.328125 L 30.734375 -7.5625 L 52.578125 -61.328125 Z M 63.375 -61.328125 "/></g></g></g><g fill="rgb(0%, 0%, 0%)" fill-opacity="1"><g transform="translate(41.648015, 336.749978)"><g><path d="M 36.84375 0 L 24.59375 0 L 24.59375 -12.265625 L 36.84375 -12.265625 Z M 36.84375 0 "/></g></g></g></svg>